<?xml version="1.0" standalone="no"?>
<!DOCTYPE svg PUBLIC "-//W3C//DTD SVG 1.1//EN" "http://www.w3.org/Graphics/SVG/1.1/DTD/svg11.dtd">
<svg xmlns="http://www.w3.org/2000/svg" xmlns:xlink="http://www.w3.org/1999/xlink" width="375" zoomAndPan="magnify" viewBox="0 0 375 374.999991" height="375" preserveAspectRatio="xMidYMid meet" version="1.0"><defs><g/><clipPath id="6b33a89e94"><path d="M 127.824219 72 L 202 72 L 202 188 L 127.824219 188 Z M 127.824219 72 " clip-rule="nonzero"/></clipPath><clipPath id="ce07d93511"><path d="M 173 89 L 247.074219 89 L 247.074219 205 L 173 205 Z M 173 89 " clip-rule="nonzero"/></clipPath></defs><g clip-path="url(#6b33a89e94)"><path fill="#1e1f26" d="M 201.234375 82.632812 L 201.234375 125.496094 C 201.234375 128.113281 199.097656 130.25 196.480469 130.25 L 178.453125 130.25 C 175.832031 130.25 173.695312 128.113281 173.695312 125.496094 L 173.695312 104.933594 L 153.535156 104.933594 L 153.535156 187.863281 L 137.328125 178.519531 C 136.988281 178.320312 136.675781 178.121094 136.363281 177.921875 C 136.363281 177.921875 136.332031 177.921875 136.332031 177.894531 C 136.164062 177.78125 135.992188 177.667969 135.820312 177.554688 C 135.648438 177.4375 135.480469 177.324219 135.335938 177.183594 C 135.164062 177.070312 135.023438 176.925781 134.851562 176.8125 C 134.679688 176.699219 134.539062 176.554688 134.398438 176.414062 C 134.253906 176.269531 134.082031 176.15625 133.941406 176.015625 C 133.796875 175.871094 133.683594 175.757812 133.542969 175.617188 L 133.484375 175.558594 C 133.34375 175.417969 133.199219 175.273438 133.085938 175.132812 C 132.945312 174.988281 132.800781 174.847656 132.6875 174.707031 C 132.546875 174.5625 132.429688 174.421875 132.289062 174.25 C 132.175781 174.136719 132.089844 174.023438 131.976562 173.878906 C 131.917969 173.824219 131.863281 173.738281 131.832031 173.679688 C 131.75 173.59375 131.691406 173.480469 131.605469 173.394531 C 131.578125 173.367188 131.546875 173.308594 131.519531 173.28125 C 131.433594 173.140625 131.320312 173.023438 131.234375 172.882812 C 131.207031 172.855469 131.179688 172.796875 131.148438 172.769531 C 131.066406 172.625 130.980469 172.511719 130.894531 172.371094 C 130.894531 172.339844 130.867188 172.339844 130.867188 172.3125 C 130.78125 172.171875 130.664062 172 130.582031 171.855469 C 130.582031 171.855469 130.550781 171.828125 130.550781 171.800781 C 130.464844 171.628906 130.351562 171.488281 130.265625 171.316406 C 130.265625 171.316406 130.265625 171.316406 130.265625 171.289062 C 130.183594 171.117188 130.066406 170.945312 129.984375 170.773438 C 129.898438 170.632812 129.839844 170.460938 129.753906 170.320312 C 129.726562 170.261719 129.699219 170.207031 129.667969 170.148438 C 129.613281 170.007812 129.527344 169.863281 129.46875 169.691406 C 129.382812 169.523438 129.328125 169.351562 129.242188 169.179688 C 129.242188 169.152344 129.214844 169.125 129.214844 169.09375 C 129.15625 168.925781 129.070312 168.753906 129.015625 168.582031 C 128.957031 168.410156 128.898438 168.242188 128.84375 168.070312 C 128.816406 168.011719 128.816406 167.957031 128.785156 167.898438 C 128.730469 167.757812 128.699219 167.585938 128.644531 167.441406 C 128.644531 167.441406 128.644531 167.414062 128.644531 167.414062 C 128.585938 167.242188 128.558594 167.074219 128.5 166.875 C 128.5 166.84375 128.472656 166.816406 128.472656 166.789062 C 128.445312 166.617188 128.386719 166.476562 128.359375 166.304688 C 128.359375 166.277344 128.332031 166.246094 128.332031 166.191406 C 128.300781 166.046875 128.273438 165.875 128.246094 165.734375 C 128.21875 165.535156 128.160156 165.363281 128.132812 165.164062 C 128.101562 164.964844 128.074219 164.765625 128.046875 164.59375 C 128.015625 164.394531 127.988281 164.195312 127.988281 163.996094 C 127.933594 163.371094 127.902344 162.746094 127.902344 162.089844 L 127.902344 115.128906 C 127.902344 110.058594 129.925781 105.246094 133.429688 101.742188 C 133.855469 101.316406 134.3125 100.890625 134.796875 100.492188 C 135.109375 100.234375 135.449219 99.976562 135.792969 99.722656 C 136.304688 99.351562 136.816406 99.007812 137.386719 98.695312 L 177.996094 75.230469 C 183.863281 71.839844 191.097656 71.839844 196.964844 75.230469 C 196.992188 75.257812 197.019531 75.289062 197.078125 75.289062 C 197.789062 75.714844 198.417969 76.226562 198.957031 76.796875 C 199.382812 77.28125 199.78125 77.792969 200.097656 78.335938 C 200.835938 79.644531 201.234375 81.125 201.234375 82.632812 Z M 201.234375 82.632812 " fill-opacity="1" fill-rule="nonzero"/></g><g clip-path="url(#ce07d93511)"><path fill="#a91d3a" d="M 247.085938 115.128906 L 247.085938 162.089844 C 247.085938 168.867188 243.46875 175.132812 237.601562 178.519531 L 196.964844 201.988281 C 191.097656 205.375 183.863281 205.375 177.996094 201.988281 C 175.347656 200.449219 173.726562 197.628906 173.726562 194.582031 L 173.726562 150.8125 C 173.726562 148.191406 175.859375 146.054688 178.480469 146.054688 L 196.480469 146.054688 C 199.097656 146.054688 201.234375 148.191406 201.234375 150.8125 L 201.234375 172.339844 L 221.425781 172.339844 L 221.425781 89.355469 L 237.628906 98.695312 C 243.46875 102.085938 247.085938 108.351562 247.085938 115.128906 Z M 247.085938 115.128906 " fill-opacity="1" fill-rule="nonzero"/></g><g fill="#a91d3a" fill-opacity="1"><g transform="translate(46.61056, 261.557328)"><g><path d="M 33.9375 0.453125 C 37.078125 0.453125 38.609375 -0.765625 38.609375 -3.6875 L 38.609375 -27.859375 C 38.609375 -30.828125 37.078125 -31.953125 33.9375 -31.953125 C 30.78125 -31.953125 29.25 -30.59375 29.25 -27.859375 L 29.25 -19.3125 L 12.59375 -19.3125 L 12.59375 -27.859375 C 12.59375 -30.828125 11.0625 -31.953125 7.96875 -31.953125 C 4.8125 -31.953125 3.28125 -30.59375 3.28125 -27.859375 L 3.28125 -3.6875 C 3.28125 -0.9375 4.8125 0.453125 7.96875 0.453125 C 11.0625 0.453125 12.59375 -0.765625 12.59375 -3.6875 L 12.59375 -12.28125 L 29.25 -12.28125 L 29.25 -3.6875 C 29.25 -0.9375 30.78125 0.453125 33.9375 0.453125 Z M 33.9375 0.453125 "/></g></g></g><g fill="#a91d3a" fill-opacity="1"><g transform="translate(90.699697, 261.557328)"><g><path d="M 13.453125 0.453125 C 16.109375 0.453125 18.1875 -0.625 19.3125 -3.328125 L 23.984375 -15.96875 L 28.671875 -3.328125 C 29.796875 -0.625 31.8125 0.453125 34.515625 0.453125 C 37.625 0.453125 39.46875 -0.984375 40.28125 -3.328125 L 47.703125 -25.78125 C 47.875 -26.28125 47.921875 -26.78125 47.921875 -27.265625 C 47.921875 -29.25 46.671875 -31.09375 44.734375 -31.71875 C 44.234375 -31.90625 43.78125 -31.953125 43.296875 -31.953125 C 41.3125 -31.953125 39.46875 -30.6875 38.828125 -28.75 L 33.84375 -13.640625 L 27.9375 -29.25 C 27.359375 -30.6875 25.921875 -31.953125 23.984375 -31.953125 C 22 -31.953125 20.5625 -30.6875 19.984375 -29.25 L 14.078125 -13.6875 L 9.09375 -28.75 C 8.453125 -30.6875 6.609375 -31.953125 4.640625 -31.953125 C 4.1875 -31.953125 3.6875 -31.90625 3.1875 -31.71875 C 1.265625 -31.09375 0 -29.25 0 -27.265625 C 0 -26.78125 0.046875 -26.28125 0.21875 -25.78125 L 7.65625 -3.328125 C 8.453125 -0.984375 10.3125 0.453125 13.453125 0.453125 Z M 13.453125 0.453125 "/></g></g></g><g fill="#a91d3a" fill-opacity="1"><g transform="translate(140.862249, 261.557328)"><g><path d="M 2.390625 -0.140625 C 3.109375 0.265625 3.921875 0.453125 4.6875 0.453125 C 6.34375 0.453125 7.921875 -0.40625 8.78125 -1.984375 L 11.03125 -6.125 L 27.90625 -6.125 L 30.15625 -1.9375 C 31 -0.40625 32.578125 0.453125 34.25 0.453125 C 35.015625 0.453125 35.8125 0.265625 36.546875 -0.140625 C 38.0625 -0.984375 38.921875 -2.5625 38.921875 -4.234375 C 38.921875 -5 38.75 -5.8125 38.34375 -6.53125 L 26.6875 -28.21875 C 25.375 -30.515625 23.125 -31.953125 19.484375 -31.953125 C 15.796875 -31.953125 13.59375 -30.5625 12.234375 -28.21875 L 0.578125 -6.53125 C 0.1875 -5.8125 0 -5.046875 0 -4.28125 C 0 -2.609375 0.859375 -0.984375 2.390625 -0.140625 Z M 14.8125 -13.140625 L 19.4375 -21.828125 L 24.125 -13.140625 Z M 14.8125 -13.140625 "/></g></g></g><g fill="#a91d3a" fill-opacity="1"><g transform="translate(182.027149, 261.557328)"><g><path d="M 7.109375 0 L 33.25 0 C 35.640625 0 36.8125 -1.171875 36.8125 -3.5625 C 36.8125 -5.890625 35.78125 -7.0625 33.25 -7.0625 L 12.59375 -7.0625 L 12.59375 -27.859375 C 12.59375 -30.78125 11.109375 -31.953125 7.96875 -31.953125 C 4.8125 -31.953125 3.28125 -30.59375 3.28125 -27.859375 L 3.28125 -3.875 C 3.28125 -1.4375 4.6875 0 7.109375 0 Z M 7.109375 0 "/></g></g></g><g fill="#a91d3a" fill-opacity="1"><g transform="translate(222.202305, 261.557328)"><g><path d="M 7.921875 0.453125 C 11.0625 0.453125 12.59375 -0.765625 12.59375 -3.6875 L 12.59375 -27.8125 C 12.59375 -30.78125 11.0625 -31.953125 7.921875 -31.953125 C 4.8125 -31.953125 3.28125 -30.59375 3.28125 -27.8125 L 3.28125 -3.6875 C 3.28125 -0.90625 4.8125 0.453125 7.921875 0.453125 Z M 7.921875 0.453125 "/></g></g></g><g fill="#a91d3a" fill-opacity="1"><g transform="translate(240.333179, 261.557328)"><g><path d="M 7.96875 0.453125 C 11.0625 0.453125 12.59375 -0.765625 12.59375 -3.6875 L 12.59375 -20.203125 L 17.859375 -3.640625 C 18.546875 -1.21875 19.984375 0.453125 23.4375 0.453125 C 26.421875 0.453125 28.3125 -1.03125 29.03125 -3.59375 L 34.296875 -20.25 L 34.296875 -3.6875 C 34.296875 -0.765625 35.8125 0.453125 38.921875 0.453125 C 42.078125 0.453125 43.609375 -0.9375 43.609375 -3.6875 L 43.609375 -25.5625 C 43.609375 -28.890625 41.171875 -31.953125 36.1875 -31.953125 C 31.765625 -31.953125 29.828125 -30.1875 28.84375 -26.953125 L 23.4375 -9.984375 L 18.046875 -26.953125 C 17.0625 -30.1875 15.125 -31.953125 10.671875 -31.953125 C 5.71875 -31.953125 3.28125 -28.890625 3.28125 -25.5625 L 3.28125 -3.6875 C 3.28125 -0.9375 4.8125 0.453125 7.96875 0.453125 Z M 7.96875 0.453125 "/></g></g></g><g fill="#a91d3a" fill-opacity="1"><g transform="translate(289.461014, 261.557328)"><g><path d="M 2.390625 -0.140625 C 3.109375 0.265625 3.921875 0.453125 4.6875 0.453125 C 6.34375 0.453125 7.921875 -0.40625 8.78125 -1.984375 L 11.03125 -6.125 L 27.90625 -6.125 L 30.15625 -1.9375 C 31 -0.40625 32.578125 0.453125 34.25 0.453125 C 35.015625 0.453125 35.8125 0.265625 36.546875 -0.140625 C 38.0625 -0.984375 38.921875 -2.5625 38.921875 -4.234375 C 38.921875 -5 38.75 -5.8125 38.34375 -6.53125 L 26.6875 -28.21875 C 25.375 -30.515625 23.125 -31.953125 19.484375 -31.953125 C 15.796875 -31.953125 13.59375 -30.5625 12.234375 -28.21875 L 0.578125 -6.53125 C 0.1875 -5.8125 0 -5.046875 0 -4.28125 C 0 -2.609375 0.859375 -0.984375 2.390625 -0.140625 Z M 14.8125 -13.140625 L 19.4375 -21.828125 L 24.125 -13.140625 Z M 14.8125 -13.140625 "/></g></g></g><g fill="#a91d3a" fill-opacity="1"><g transform="translate(128.208599, 296.158749)"><g><path d="M 2.78125 0 L 9.6875 0 C 14.6875 0 16.984375 -2.59375 16.984375 -7 C 16.984375 -11.40625 14.6875 -14 9.6875 -14 L 2.78125 -14 C 2.1875 -14 1.8125 -13.640625 1.8125 -13.046875 L 1.8125 -0.953125 C 1.8125 -0.375 2.1875 0 2.78125 0 Z M 4.09375 -1.875 L 4.09375 -12.140625 L 9.125 -12.140625 C 12.984375 -12.140625 14.703125 -10.34375 14.703125 -7 C 14.703125 -3.65625 12.984375 -1.875 9.125 -1.875 Z M 4.09375 -1.875 "/></g></g></g><g fill="#a91d3a" fill-opacity="1"><g transform="translate(150.381445, 296.158749)"><g><path d="M 2.953125 0.203125 C 3.71875 0.203125 4.09375 -0.09375 4.09375 -0.8125 L 4.09375 -13.1875 C 4.09375 -13.90625 3.71875 -14.203125 2.953125 -14.203125 C 2.203125 -14.203125 1.8125 -13.859375 1.8125 -13.1875 L 1.8125 -0.8125 C 1.8125 -0.140625 2.203125 0.203125 2.953125 0.203125 Z M 2.953125 0.203125 "/></g></g></g><g fill="#a91d3a" fill-opacity="1"><g transform="translate(160.299135, 296.158749)"><g><path d="M 9.0625 0.203125 C 11.21875 0.203125 12.984375 -0.4375 14.3125 -1.625 L 14.3125 -0.765625 C 14.3125 -0.09375 14.65625 0.203125 15.375 0.203125 C 16.078125 0.203125 16.4375 -0.140625 16.4375 -0.765625 L 16.4375 -6.703125 C 16.4375 -7.296875 16.078125 -7.65625 15.484375 -7.65625 L 9.65625 -7.65625 C 9.15625 -7.65625 8.90625 -7.40625 8.90625 -6.90625 C 8.90625 -6.375 9.140625 -6.125 9.65625 -6.125 L 14.15625 -6.125 L 14.15625 -3.953125 C 12.9375 -2.515625 11.296875 -1.6875 9.046875 -1.6875 C 6.015625 -1.6875 3.5 -3.71875 3.5 -7 C 3.5 -10.203125 5.90625 -12.34375 9.078125 -12.34375 C 11.484375 -12.34375 13.234375 -11.28125 14.453125 -9.859375 C 14.65625 -9.65625 14.9375 -9.578125 15.234375 -9.578125 C 15.546875 -9.578125 15.84375 -9.6875 16.015625 -9.90625 C 16.21875 -10.125 16.3125 -10.359375 16.3125 -10.578125 C 16.3125 -10.875 16.1875 -11.1875 15.90625 -11.453125 C 14.4375 -13.125 11.90625 -14.203125 9.078125 -14.203125 C 4.28125 -14.203125 1.21875 -11.34375 1.21875 -7 C 1.21875 -2.59375 4.375 0.203125 9.0625 0.203125 Z M 9.0625 0.203125 "/></g></g></g><g fill="#a91d3a" fill-opacity="1"><g transform="translate(182.551952, 296.158749)"><g><path d="M 2.953125 0.203125 C 3.71875 0.203125 4.09375 -0.09375 4.09375 -0.8125 L 4.09375 -13.1875 C 4.09375 -13.90625 3.71875 -14.203125 2.953125 -14.203125 C 2.203125 -14.203125 1.8125 -13.859375 1.8125 -13.1875 L 1.8125 -0.8125 C 1.8125 -0.140625 2.203125 0.203125 2.953125 0.203125 Z M 2.953125 0.203125 "/></g></g></g><g fill="#a91d3a" fill-opacity="1"><g transform="translate(192.469641, 296.158749)"><g><path d="M 7.203125 0.203125 C 7.9375 0.203125 8.3125 -0.09375 8.3125 -0.8125 L 8.3125 -12.140625 L 13.421875 -12.140625 C 14.0625 -12.140625 14.375 -12.453125 14.375 -13.0625 C 14.375 -13.6875 14.078125 -14 13.421875 -14 L 0.953125 -14 C 0.3125 -14 0 -13.6875 0 -13.0625 C 0 -12.453125 0.296875 -12.140625 0.953125 -12.140625 L 6.0625 -12.140625 L 6.0625 -0.8125 C 6.0625 -0.15625 6.4375 0.203125 7.203125 0.203125 Z M 7.203125 0.203125 "/></g></g></g><g fill="#a91d3a" fill-opacity="1"><g transform="translate(210.843988, 296.158749)"><g><path d="M 0.578125 0.0625 C 0.765625 0.15625 0.9375 0.203125 1.140625 0.203125 C 1.546875 0.203125 1.9375 -0.015625 2.140625 -0.40625 L 3.859375 -3.703125 L 12.078125 -3.703125 L 13.796875 -0.375 C 14 -0.015625 14.40625 0.203125 14.796875 0.203125 C 14.984375 0.203125 15.15625 0.15625 15.34375 0.0625 C 15.71875 -0.15625 15.921875 -0.546875 15.921875 -0.9375 C 15.921875 -1.125 15.875 -1.3125 15.78125 -1.5 L 9.65625 -13.3125 C 9.359375 -13.859375 8.8125 -14.203125 7.984375 -14.203125 C 7.125 -14.203125 6.578125 -13.875 6.28125 -13.3125 L 0.140625 -1.5 C 0.046875 -1.3125 0 -1.140625 0 -0.953125 C 0 -0.5625 0.21875 -0.15625 0.578125 0.0625 Z M 4.84375 -5.578125 L 7.953125 -11.59375 L 11.09375 -5.578125 Z M 4.84375 -5.578125 "/></g></g></g><g fill="#a91d3a" fill-opacity="1"><g transform="translate(230.757725, 296.158749)"><g><path d="M 2.78125 0 L 14.4375 0 C 15.0625 0 15.375 -0.3125 15.375 -0.9375 C 15.375 -1.5625 15.09375 -1.875 14.4375 -1.875 L 4.09375 -1.875 L 4.09375 -13.203125 C 4.09375 -13.90625 3.734375 -14.203125 2.984375 -14.203125 C 2.203125 -14.203125 1.8125 -13.859375 1.8125 -13.203125 L 1.8125 -0.984375 C 1.8125 -0.375 2.1875 0 2.78125 0 Z M 2.78125 0 "/></g></g></g></svg>