<?xml version="1.0" standalone="no"?>
<!DOCTYPE svg PUBLIC "-//W3C//DTD SVG 1.1//EN" "http://www.w3.org/Graphics/SVG/1.1/DTD/svg11.dtd">
<svg xmlns="http://www.w3.org/2000/svg" xmlns:xlink="http://www.w3.org/1999/xlink" width="375" zoomAndPan="magnify" viewBox="0 0 375 374.999991" height="375" preserveAspectRatio="xMidYMid meet" version="1.0"><defs><clipPath id="975bd522f4"><path d="M 163 101 L 290.890625 101 L 290.890625 302 L 163 302 Z M 163 101 " clip-rule="nonzero"/></clipPath></defs><path fill="#1e1f26" d="M 211.351562 90.3125 L 211.351562 164.730469 C 211.351562 169.277344 207.644531 172.988281 203.09375 172.988281 L 171.796875 172.988281 C 167.246094 172.988281 163.539062 169.277344 163.539062 164.730469 L 163.539062 129.027344 L 128.53125 129.027344 L 128.53125 273.019531 L 100.394531 256.800781 C 99.800781 256.453125 99.257812 256.105469 98.714844 255.761719 C 98.714844 255.761719 98.664062 255.761719 98.664062 255.710938 C 98.367188 255.515625 98.070312 255.316406 97.773438 255.117188 C 97.476562 254.921875 97.179688 254.722656 96.933594 254.476562 C 96.636719 254.277344 96.390625 254.03125 96.09375 253.832031 C 95.796875 253.632812 95.546875 253.386719 95.300781 253.140625 C 95.054688 252.894531 94.757812 252.695312 94.511719 252.449219 C 94.261719 252.199219 94.066406 252.003906 93.816406 251.753906 L 93.71875 251.65625 C 93.472656 251.410156 93.226562 251.164062 93.027344 250.914062 C 92.78125 250.667969 92.53125 250.421875 92.335938 250.171875 C 92.085938 249.925781 91.890625 249.679688 91.640625 249.382812 C 91.445312 249.183594 91.296875 248.988281 91.097656 248.738281 C 91 248.640625 90.902344 248.492188 90.851562 248.394531 C 90.703125 248.246094 90.605469 248.046875 90.457031 247.898438 C 90.40625 247.847656 90.355469 247.75 90.308594 247.699219 C 90.160156 247.453125 89.960938 247.257812 89.8125 247.007812 C 89.761719 246.960938 89.714844 246.859375 89.664062 246.8125 C 89.515625 246.5625 89.367188 246.367188 89.21875 246.117188 C 89.21875 246.070312 89.171875 246.070312 89.171875 246.019531 C 89.023438 245.773438 88.824219 245.476562 88.675781 245.230469 C 88.675781 245.230469 88.625 245.179688 88.625 245.128906 C 88.476562 244.832031 88.28125 244.585938 88.132812 244.289062 C 88.132812 244.289062 88.132812 244.289062 88.132812 244.238281 C 87.984375 243.941406 87.785156 243.644531 87.636719 243.351562 C 87.488281 243.101562 87.390625 242.804688 87.242188 242.558594 C 87.191406 242.460938 87.144531 242.359375 87.09375 242.261719 C 86.996094 242.015625 86.847656 241.765625 86.746094 241.472656 C 86.597656 241.175781 86.5 240.878906 86.351562 240.582031 C 86.351562 240.53125 86.300781 240.480469 86.300781 240.433594 C 86.203125 240.136719 86.054688 239.839844 85.957031 239.542969 C 85.855469 239.246094 85.757812 238.949219 85.660156 238.652344 C 85.609375 238.554688 85.609375 238.453125 85.558594 238.355469 C 85.460938 238.109375 85.414062 237.8125 85.3125 237.566406 C 85.3125 237.566406 85.3125 237.515625 85.3125 237.515625 C 85.214844 237.21875 85.164062 236.921875 85.066406 236.574219 C 85.066406 236.527344 85.015625 236.476562 85.015625 236.425781 C 84.96875 236.128906 84.867188 235.882812 84.820312 235.585938 C 84.820312 235.539062 84.769531 235.488281 84.769531 235.390625 C 84.71875 235.140625 84.671875 234.84375 84.621094 234.597656 C 84.570312 234.25 84.472656 233.953125 84.421875 233.609375 C 84.375 233.261719 84.324219 232.917969 84.273438 232.621094 C 84.226562 232.273438 84.175781 231.925781 84.175781 231.582031 C 84.078125 230.492188 84.027344 229.40625 84.027344 228.269531 L 84.027344 146.730469 C 84.027344 137.929688 87.539062 129.574219 93.621094 123.492188 C 94.363281 122.75 95.152344 122.007812 95.992188 121.316406 C 96.539062 120.871094 97.132812 120.425781 97.722656 119.980469 C 98.613281 119.335938 99.503906 118.746094 100.492188 118.199219 L 171.003906 77.457031 C 181.191406 71.570312 193.75 71.570312 203.9375 77.457031 C 203.984375 77.503906 204.035156 77.554688 204.132812 77.554688 C 205.371094 78.296875 206.457031 79.1875 207.398438 80.175781 C 208.140625 81.015625 208.832031 81.90625 209.375 82.847656 C 210.660156 85.121094 211.351562 87.691406 211.351562 90.3125 Z M 211.351562 90.3125 " fill-opacity="1" fill-rule="nonzero"/><g clip-path="url(#975bd522f4)"><path fill="#a91d3a" d="M 290.960938 146.730469 L 290.960938 228.269531 C 290.960938 240.035156 284.683594 250.914062 274.496094 256.800781 L 203.9375 297.542969 C 193.75 303.425781 181.191406 303.425781 171.003906 297.542969 C 166.40625 294.875 163.585938 289.976562 163.585938 284.6875 L 163.585938 208.6875 C 163.585938 204.136719 167.296875 200.429688 171.84375 200.429688 L 203.09375 200.429688 C 207.644531 200.429688 211.351562 204.136719 211.351562 208.6875 L 211.351562 246.070312 L 246.410156 246.070312 L 246.410156 101.980469 L 274.546875 118.199219 C 284.683594 124.085938 290.960938 134.960938 290.960938 146.730469 Z M 290.960938 146.730469 " fill-opacity="1" fill-rule="nonzero"/></g></svg>